<mxfile host="app.diagrams.net" modified="2023-10-01T23:07:06.590Z" agent="Mozilla/5.0 (Macintosh; Intel Mac OS X 10_15_7) AppleWebKit/537.36 (KHTML, like Gecko) Chrome/117.0.0.0 Safari/537.36" etag="Yv25XygFO3RnpGSOm2FR" version="22.0.0" type="github" pages="2">
  <diagram name="Target User" id="phKFYD70wvnr9cNRO41y">
    <mxGraphModel dx="934" dy="682" grid="1" gridSize="10" guides="1" tooltips="1" connect="1" arrows="1" fold="1" page="1" pageScale="1" pageWidth="850" pageHeight="1100" math="0" shadow="0">
      <root>
        <mxCell id="0" />
        <mxCell id="1" parent="0" />
        <mxCell id="1DPx2WfFOsJZHPRdK-EC-22" style="edgeStyle=orthogonalEdgeStyle;rounded=0;orthogonalLoop=1;jettySize=auto;html=1;entryX=0.5;entryY=1;entryDx=0;entryDy=0;" edge="1" parent="1" source="1DPx2WfFOsJZHPRdK-EC-2" target="1DPx2WfFOsJZHPRdK-EC-15">
          <mxGeometry relative="1" as="geometry" />
        </mxCell>
        <mxCell id="1DPx2WfFOsJZHPRdK-EC-2" value="Bob&lt;br&gt;" style="shape=umlActor;verticalLabelPosition=bottom;verticalAlign=top;html=1;outlineConnect=0;" vertex="1" parent="1">
          <mxGeometry x="60" y="300" width="30" height="60" as="geometry" />
        </mxCell>
        <mxCell id="1DPx2WfFOsJZHPRdK-EC-3" value="&lt;h1&gt;&lt;span style=&quot;background-color: initial;&quot;&gt;Target User&lt;/span&gt;&lt;/h1&gt;&lt;h1&gt;&lt;br&gt;&lt;/h1&gt;" style="text;html=1;strokeColor=none;fillColor=none;spacing=5;spacingTop=-20;whiteSpace=wrap;overflow=hidden;rounded=0;" vertex="1" parent="1">
          <mxGeometry x="355" y="80" width="140" height="50" as="geometry" />
        </mxCell>
        <mxCell id="1DPx2WfFOsJZHPRdK-EC-4" value="Wants to improve his English Vocabulary" style="shape=callout;whiteSpace=wrap;html=1;perimeter=calloutPerimeter;" vertex="1" parent="1">
          <mxGeometry x="60" y="220" width="120" height="80" as="geometry" />
        </mxCell>
        <mxCell id="1DPx2WfFOsJZHPRdK-EC-23" style="edgeStyle=orthogonalEdgeStyle;rounded=0;orthogonalLoop=1;jettySize=auto;html=1;entryX=0.5;entryY=0;entryDx=0;entryDy=0;" edge="1" parent="1" source="1DPx2WfFOsJZHPRdK-EC-5" target="1DPx2WfFOsJZHPRdK-EC-16">
          <mxGeometry relative="1" as="geometry" />
        </mxCell>
        <mxCell id="1DPx2WfFOsJZHPRdK-EC-5" value="Alice" style="shape=umlActor;verticalLabelPosition=bottom;verticalAlign=top;html=1;outlineConnect=0;" vertex="1" parent="1">
          <mxGeometry x="310" y="300" width="30" height="60" as="geometry" />
        </mxCell>
        <mxCell id="1DPx2WfFOsJZHPRdK-EC-6" value="Wants to remember Historical figures, places and events" style="shape=callout;whiteSpace=wrap;html=1;perimeter=calloutPerimeter;" vertex="1" parent="1">
          <mxGeometry x="300" y="220" width="120" height="80" as="geometry" />
        </mxCell>
        <mxCell id="1DPx2WfFOsJZHPRdK-EC-24" style="edgeStyle=orthogonalEdgeStyle;rounded=0;orthogonalLoop=1;jettySize=auto;html=1;entryX=0.5;entryY=0;entryDx=0;entryDy=0;" edge="1" parent="1" source="1DPx2WfFOsJZHPRdK-EC-7" target="1DPx2WfFOsJZHPRdK-EC-16">
          <mxGeometry relative="1" as="geometry" />
        </mxCell>
        <mxCell id="1DPx2WfFOsJZHPRdK-EC-7" value="George" style="shape=umlActor;verticalLabelPosition=bottom;verticalAlign=top;html=1;outlineConnect=0;" vertex="1" parent="1">
          <mxGeometry x="520" y="300" width="30" height="60" as="geometry" />
        </mxCell>
        <mxCell id="1DPx2WfFOsJZHPRdK-EC-8" value="Seeks to learn Greek Mythology and remember it" style="shape=callout;whiteSpace=wrap;html=1;perimeter=calloutPerimeter;" vertex="1" parent="1">
          <mxGeometry x="520" y="220" width="120" height="80" as="geometry" />
        </mxCell>
        <mxCell id="1DPx2WfFOsJZHPRdK-EC-25" style="edgeStyle=orthogonalEdgeStyle;rounded=0;orthogonalLoop=1;jettySize=auto;html=1;entryX=0.5;entryY=1;entryDx=0;entryDy=0;" edge="1" parent="1" source="1DPx2WfFOsJZHPRdK-EC-9" target="1DPx2WfFOsJZHPRdK-EC-15">
          <mxGeometry relative="1" as="geometry" />
        </mxCell>
        <mxCell id="1DPx2WfFOsJZHPRdK-EC-9" value="Fred" style="shape=umlActor;verticalLabelPosition=bottom;verticalAlign=top;html=1;outlineConnect=0;" vertex="1" parent="1">
          <mxGeometry x="720" y="300" width="30" height="60" as="geometry" />
        </mxCell>
        <mxCell id="1DPx2WfFOsJZHPRdK-EC-10" value="Wants to keep a tab on topics or ideas he might forget" style="shape=callout;whiteSpace=wrap;html=1;perimeter=calloutPerimeter;" vertex="1" parent="1">
          <mxGeometry x="720" y="220" width="120" height="80" as="geometry" />
        </mxCell>
        <mxCell id="1DPx2WfFOsJZHPRdK-EC-15" value="&lt;br&gt;To Learn and Remember what they&#39;ve learnt" style="rounded=1;whiteSpace=wrap;html=1;" vertex="1" parent="1">
          <mxGeometry x="320" y="490" width="200" height="80" as="geometry" />
        </mxCell>
        <mxCell id="1DPx2WfFOsJZHPRdK-EC-16" value="&lt;b&gt;Objective&lt;/b&gt;" style="text;html=1;strokeColor=none;fillColor=none;align=center;verticalAlign=middle;whiteSpace=wrap;rounded=0;" vertex="1" parent="1">
          <mxGeometry x="390" y="490" width="60" height="30" as="geometry" />
        </mxCell>
      </root>
    </mxGraphModel>
  </diagram>
  <diagram id="PA_X-y9x7iA2R5NRTUC9" name="User Flow">
    <mxGraphModel dx="934" dy="682" grid="1" gridSize="10" guides="1" tooltips="1" connect="1" arrows="1" fold="1" page="1" pageScale="1" pageWidth="850" pageHeight="1100" math="0" shadow="0">
      <root>
        <mxCell id="0" />
        <mxCell id="1" parent="0" />
      </root>
    </mxGraphModel>
  </diagram>
</mxfile>
